{"images":[{"uri":"data:image/gif;base64,","name":"baseColor0"},{"uri":"data:image/gif;base64,","name":"metallicRoughness1"},{"uri":"data:image/gif;base64,","name":"baseColor2"},{"uri":"data:image/gif;base64,","name":"metallicRoughness3"},{"uri":"data:image/gif;base64,","name":"baseColor4"},{"uri":"data:image/gif;base64,","name":"metallicRoughness5"},{"uri":"mat5_c.jpg","name":"mat5_c.jpg"},{"uri":"mat6_n.jpg","name":"mat6_n.jpg"},{"uri":"mat5_s.jpg","name":"mat5_s.jpg"},{"uri":"mat0_n.jpg","name":"mat0_n.jpg"}],"accessors":[{"componentType":5123,"bufferView":0,"count":31608,"type":"SCALAR","byteOffset":0},{"componentType":5123,"bufferView":0,"count":66480,"type":"SCALAR","byteOffset":63216},{"componentType":5123,"bufferView":0,"count":65610,"type":"SCALAR","byteOffset":196176},{"componentType":5123,"bufferView":0,"count":4080,"type":"SCALAR","byteOffset":327396},{"componentType":5123,"bufferView":0,"count":4080,"type":"SCALAR","byteOffset":335556},{"componentType":5123,"bufferView":0,"count":89352,"type":"SCALAR","byteOffset":343716},{"componentType":5123,"bufferView":0,"count":66480,"type":"SCALAR","byteOffset":522420},{"componentType":5123,"bufferView":0,"count":66480,"type":"SCALAR","byteOffset":655380},{"componentType":5126,"max":[0.018220240250229836,0.08443819731473923,0.020596599206328392],"bufferView":1,"count":6672,"type":"VEC3","min":[-0.01978090964257717,0.03330446779727936,-0.00640335027128458],"byteOffset":0},{"componentType":5126,"bufferView":1,"count":6672,"type":"VEC3","byteOffset":12},{"componentType":5126,"bufferView":1,"count":6672,"type":"VEC2","byteOffset":24},{"componentType":5126,"max":[0.041545648127794266,0.09999998658895493,0.0432293675839901],"bufferView":2,"count":13498,"type":"VEC3","min":[-0.04180357977747917,0.005293849390000105,-0.015428599901497364],"byteOffset":0},{"componentType":5126,"bufferView":2,"count":13498,"type":"VEC3","byteOffset":12},{"componentType":5126,"bufferView":2,"count":13498,"type":"VEC2","byteOffset":24},{"componentType":5126,"max":[0.03480396047234535,0.08469806611537933,0.018336499109864235],"bufferView":3,"count":15522,"type":"VEC3","min":[-0.029628587886691093,0.005241479724645615,-0.022283239290118217],"byteOffset":0},{"componentType":5126,"bufferView":3,"count":15522,"type":"VEC3","byteOffset":12},{"componentType":5126,"bufferView":3,"count":15522,"type":"VEC2","byteOffset":24},{"componentType":5126,"max":[0.03456906974315643,0.006346359848976135,0.0424555204808712],"bufferView":4,"count":898,"type":"VEC3","min":[-0.030603589490056038,-0.0002264299982925877,-0.022717097774147987],"byteOffset":0},{"componentType":5126,"bufferView":4,"count":898,"type":"VEC3","byteOffset":12},{"componentType":5126,"bufferView":4,"count":898,"type":"VEC2","byteOffset":24},{"componentType":5126,"max":[0.03432457894086838,0.006112679839134216,0.042211029678583145],"bufferView":5,"count":898,"type":"VEC3","min":[-0.030359098687767982,0.000018060000002151355,-0.022472620010375977],"byteOffset":0},{"componentType":5126,"bufferView":5,"count":898,"type":"VEC3","byteOffset":12},{"componentType":5126,"bufferView":5,"count":898,"type":"VEC2","byteOffset":24},{"componentType":5126,"max":[0.03488817811012268,0.08478792756795883,0.020704619586467743],"bufferView":6,"count":20012,"type":"VEC3","min":[-0.02973402850329876,0.005172340199351311,-0.022383669391274452],"byteOffset":0},{"componentType":5126,"bufferView":6,"count":20012,"type":"VEC3","byteOffset":12},{"componentType":5126,"bufferView":6,"count":20012,"type":"VEC2","byteOffset":24},{"componentType":5126,"max":[0.041507821530103683,0.09995317459106445,0.043238937854766846],"bufferView":7,"count":13479,"type":"VEC3","min":[-0.04185200110077858,0.005104889627546072,-0.01561024971306324],"byteOffset":0},{"componentType":5126,"bufferView":7,"count":13479,"type":"VEC3","byteOffset":12},{"componentType":5126,"bufferView":7,"count":13479,"type":"VEC2","byteOffset":24},{"componentType":5126,"max":[0.041545648127794266,0.09999998658895493,0.0432293675839901],"bufferView":8,"count":13495,"type":"VEC3","min":[-0.04180357977747917,0.005293849390000105,-0.015428599901497364],"byteOffset":0},{"componentType":5126,"bufferView":8,"count":13495,"type":"VEC3","byteOffset":12},{"componentType":5126,"bufferView":8,"count":13495,"type":"VEC2","byteOffset":24}],"textures":[{"source":0,"sampler":0},{"source":1,"sampler":0},{"source":2,"sampler":0},{"source":3,"sampler":0},{"source":4,"sampler":0},{"source":5,"sampler":0},{"source":6,"sampler":0},{"source":7,"sampler":0},{"source":8,"sampler":0},{"source":9,"sampler":0}],"buffers":[{"byteLength":3491508,"uri":"buffer.bin"}],"bufferViews":[{"byteLength":788340,"target":34963,"byteOffset":0,"buffer":0},{"byteLength":213504,"byteStride":32,"target":34962,"byteOffset":788340,"buffer":0},{"byteLength":431936,"byteStride":32,"target":34962,"byteOffset":1001844,"buffer":0},{"byteLength":496704,"byteStride":32,"target":34962,"byteOffset":1433780,"buffer":0},{"byteLength":28736,"byteStride":32,"target":34962,"byteOffset":1930484,"buffer":0},{"byteLength":28736,"byteStride":32,"target":34962,"byteOffset":1959220,"buffer":0},{"byteLength":640384,"byteStride":32,"target":34962,"byteOffset":1987956,"buffer":0},{"byteLength":431328,"byteStride":32,"target":34962,"byteOffset":2628340,"buffer":0},{"byteLength":431840,"byteStride":32,"target":34962,"byteOffset":3059668,"buffer":0}],"samplers":[{"magFilter":9729,"minFilter":9987}],"scene":0,"nodes":[{"children":[1],"name":"RootNode","translation":[0.015317648649215698,0.02264299982925877,-1.026092004030943]},{"scale":[100,100,100],"children":[2],"name":"blend_root"},{"children":[3,4,5,6,7,8,9,10],"name":"armature"},{"name":"7-model-0","mesh":0},{"name":"6-model-0","mesh":1},{"name":"5-model-0","mesh":2},{"name":"4-model-0","mesh":3},{"name":"3-model-0","mesh":4},{"name":"2-model-0","mesh":5},{"name":"1-model-0","mesh":6},{"name":"0-model-0","mesh":7}],"materials":[{"normalTexture":{"index":9},"pbrMetallicRoughness":{"roughnessFactor":0,"metallicRoughnessTexture":{"index":1},"baseColorTexture":{"index":0}},"alphaCutoff":0.45,"extensions":{"KHR_materials_specular":{"specularFactor":0.3}},"name":"_body_","doubleSided":true,"alphaMode":"MASK"},{"pbrMetallicRoughness":{"roughnessFactor":0.415227383375168,"baseColorFactor":[0.762319982051849,0.426640003919601,0.476880013942719,1],"metallicFactor":0.400000005960464},"extensions":{"KHR_materials_specular":{"specularFactor":0.3}},"name":"_magic_mid_"},{"normalTexture":{"index":9},"pbrMetallicRoughness":{"roughnessFactor":0,"metallicRoughnessTexture":{"index":3},"baseColorTexture":{"index":2}},"extensions":{"KHR_materials_specular":{"specularFactor":0.3}},"name":"_clothe_"},{"pbrMetallicRoughness":{"roughnessFactor":0.415227383375168,"baseColorFactor":[1,1,1,1],"metallicFactor":0.400000005960464},"extensions":{"KHR_materials_specular":{"specularFactor":0.3}},"name":"_con_black_.001"},{"normalTexture":{"index":7},"pbrMetallicRoughness":{"roughnessFactor":0,"metallicRoughnessTexture":{"index":5},"baseColorFactor":[0.16334621793885953,0.1464927284238139,0.18114465578667757,1],"baseColorTexture":{"index":4},"metallicFactor":0.4497789669078317},"extensions":{"KHR_materials_specular":{"specularFactor":0.3}},"name":"_pod_"},{"pbrMetallicRoughness":{"roughnessFactor":0.415227383375168,"baseColorFactor":[0.9239933352518732,0.33445780792388924,0.1247409453870513,1],"metallicFactor":0.400000005960464},"extensions":{"KHR_materials_specular":{"specularFactor":0.3}},"name":"_con_black_"},{"pbrMetallicRoughness":{"roughnessFactor":0.415227383375168,"baseColorFactor":[0.8355277914608409,0.2271365255051489,0.9573695761995268,1],"metallicFactor":0.400000005960464},"extensions":{"KHR_materials_specular":{"specularFactor":0.3}},"name":"_con_wight_"},{"pbrMetallicRoughness":{"baseColorFactor":[1,1,1,1],"baseColorTexture":{"index":6},"metallicFactor":0},"emissiveFactor":[1,1,1],"extensions":{"KHR_materials_specular":{"specularFactor":0.3}},"name":"_magic_","doubleSided":true,"emissiveTexture":{"index":8},"alphaMode":"BLEND"}],"scenes":[{"nodes":[0],"name":"Root Scene"}],"asset":{"generator":"CG美术之家","source":"https://www.cgmszj.com/model/107919.html","version":"2.0"},"meshes":[{"primitives":[{"mode":4,"indices":0,"material":0,"attributes":{"POSITION":8,"TEXCOORD_0":10,"NORMAL":9}}],"name":"7-model-0"},{"primitives":[{"mode":4,"indices":1,"material":1,"attributes":{"POSITION":11,"TEXCOORD_0":13,"NORMAL":12}}],"name":"6-model-0"},{"primitives":[{"mode":4,"indices":2,"material":2,"attributes":{"POSITION":14,"TEXCOORD_0":16,"NORMAL":15}}],"name":"5-model-0"},{"primitives":[{"mode":4,"indices":3,"material":3,"attributes":{"POSITION":17,"TEXCOORD_0":19,"NORMAL":18}}],"name":"4-model-0"},{"primitives":[{"mode":4,"indices":4,"material":4,"attributes":{"POSITION":20,"TEXCOORD_0":22,"NORMAL":21}}],"name":"3-model-0"},{"primitives":[{"mode":4,"indices":5,"material":5,"attributes":{"POSITION":23,"TEXCOORD_0":25,"NORMAL":24}}],"name":"2-model-0"},{"primitives":[{"mode":4,"indices":6,"material":6,"attributes":{"POSITION":26,"TEXCOORD_0":28,"NORMAL":27}}],"name":"1-model-0"},{"primitives":[{"mode":4,"indices":7,"material":7,"attributes":{"POSITION":29,"TEXCOORD_0":31,"NORMAL":30}}],"name":"0-model-0"}]}