{"images":[{"uri":"3Dxy_Img_1.jpg","name":"3Dxy_Img_1.jpg"},{"uri":"3Dxy_Img_2.jpg","name":"3Dxy_Img_2.jpg"},{"uri":"3Dxy_Img_3.jpg","name":"3Dxy_Img_3.jpg"}],"accessors":[{"componentType":5126,"bufferView":0,"count":1,"type":"SCALAR","byteOffset":0},{"componentType":5123,"bufferView":1,"count":8451,"type":"SCALAR","byteOffset":0},{"componentType":5123,"bufferView":1,"count":17907,"type":"SCALAR","byteOffset":16904},{"componentType":5123,"bufferView":1,"count":35562,"type":"SCALAR","byteOffset":52720},{"componentType":5126,"max":[0.03918496519327164,-0.0004431184206623584,0.6657649874687195],"bufferView":2,"count":1996,"type":"VEC3","min":[-0.03918493539094925,-0.05646515265107155,0.5754651427268982],"byteOffset":0},{"componentType":5126,"bufferView":2,"count":1996,"type":"VEC3","byteOffset":12},{"componentType":5126,"bufferView":2,"count":1996,"type":"VEC2","byteOffset":24},{"componentType":5126,"max":[0.13977298140525818,0.12571583688259125,0.7066218256950378],"bufferView":3,"count":6524,"type":"VEC3","min":[-0.13977298140525818,-0.0731608122587204,0.26505517959594727],"byteOffset":0},{"componentType":5126,"bufferView":3,"count":6524,"type":"VEC3","byteOffset":12},{"componentType":5126,"bufferView":3,"count":6524,"type":"VEC2","byteOffset":24},{"componentType":5126,"max":[0.2346562147140503,0.12195225805044174,0.6243325471878052],"bufferView":4,"count":9641,"type":"VEC3","min":[-0.2346562296152115,-0.07905155420303345,-0.0011666067875921726],"byteOffset":0},{"componentType":5126,"bufferView":4,"count":9641,"type":"VEC3","byteOffset":12},{"componentType":5126,"bufferView":4,"count":9641,"type":"VEC2","byteOffset":24}],"textures":[{"source":0,"sampler":0},{"source":1,"sampler":0},{"source":2,"sampler":0}],"buffers":[{"byteLength":705000,"uri":"buffer.bin"}],"bufferViews":[{"byteLength":4,"byteOffset":0,"buffer":0},{"byteLength":123844,"target":34963,"byteOffset":4,"buffer":0},{"byteLength":63872,"byteStride":32,"target":34962,"byteOffset":123848,"buffer":0},{"byteLength":208768,"byteStride":32,"target":34962,"byteOffset":187720,"buffer":0},{"byteLength":308512,"byteStride":32,"target":34962,"byteOffset":396488,"buffer":0}],"samplers":[{"magFilter":9729,"minFilter":9987}],"scene":0,"nodes":[{"children":[1],"name":"RootNode"},{"rotation":[-0.70710676908493,0,0,0.70710676908493],"scale":[2.53999996185303,2.53999996185303,2.53999996185303],"name":"3DXY_geometry_002","mesh":0},{"children":[0],"name":"Pivot","translation":[0.00000001892447443196943,0.0029631805021632946,0.059263603852118596]}],"materials":[{"pbrMetallicRoughness":{"roughnessFactor":0,"baseColorFactor":[0.5,0.5,0.5,1],"baseColorTexture":{"index":0},"metallicFactor":0},"extensions":{"KHR_materials_specular":{"specularFactor":0.3}},"name":"HUTAO0003"},{"pbrMetallicRoughness":{"roughnessFactor":0.76,"baseColorFactor":[0.5,0.5,0.5,1],"baseColorTexture":{"index":1},"metallicFactor":0},"extensions":{"KHR_materials_specular":{"specularFactor":0.3}},"name":"HUTAO0004"},{"pbrMetallicRoughness":{"baseColorFactor":[0.5,0.5,0.5,1],"baseColorTexture":{"index":2},"metallicFactor":0},"extensions":{"KHR_materials_specular":{"specularFactor":0.3}},"name":"HUTAO0005"}],"animations":[{"samplers":[],"channels":[],"name":"Take 001"}],"scenes":[{"nodes":[2],"name":"Root Scene"}],"asset":{"generator":"CG美术之家","source":"https://www.cgmszj.com/model/108357.html","version":"2.0"},"meshes":[{"primitives":[{"mode":4,"indices":1,"material":0,"attributes":{"POSITION":4,"TEXCOORD_0":6,"NORMAL":5}},{"mode":4,"indices":2,"material":1,"attributes":{"POSITION":7,"TEXCOORD_0":9,"NORMAL":8}},{"mode":4,"indices":3,"material":2,"attributes":{"POSITION":10,"TEXCOORD_0":12,"NORMAL":11}}],"name":"3DXY_geometry_002"}]}